<?xml version="1.0" standalone="no"?>
<!DOCTYPE svg PUBLIC "-//W3C//DTD SVG 20010904//EN"
 "http://www.w3.org/TR/2001/REC-SVG-20010904/DTD/svg10.dtd">
<svg version="1.0" xmlns="http://www.w3.org/2000/svg"
 width="70.000000pt" height="70.000000pt" viewBox="0 0 70.000000 70.000000"
 preserveAspectRatio="xMidYMid meet">
<metadata>
Created by potrace 1.14, written by Peter Selinger 2001-2017
</metadata>
<g transform="translate(0.000000,70.000000) scale(0.100000,-0.100000)"
fill="#000000" stroke="none">
<path d="M510 594 c0 -13 -3 -14 -14 -5 -26 21 -30 -9 -5 -35 17 -19 20 -27
11 -36 -9 -9 -17 -6 -36 11 -26 25 -56 21 -35 -5 9 -11 8 -14 -5 -14 -9 0 -16
-7 -16 -15 0 -8 8 -15 18 -15 11 0 13 -3 5 -8 -8 -5 -9 -13 -3 -22 7 -12 13
-11 33 8 43 40 67 19 26 -24 -23 -25 -17 -53 7 -33 11 9 14 8 14 -5 0 -9 7
-16 15 -16 8 0 15 6 15 14 0 9 7 12 20 9 11 -3 20 -1 20 4 0 6 -9 18 -20 28
-23 21 -26 45 -7 45 8 0 22 -9 32 -20 19 -21 40 -17 31 6 -3 8 1 14 9 14 8 0
15 9 15 20 0 13 -5 18 -15 14 -11 -4 -13 -2 -9 9 9 24 -12 28 -31 7 -20 -22
-45 -27 -45 -8 0 6 10 22 22 35 19 20 20 26 8 33 -9 6 -17 5 -22 -3 -5 -8 -8
-6 -8 6 0 9 -7 17 -15 17 -8 0 -15 -7 -15 -16z"/>
<path d="M186 375 c-58 -60 -106 -110 -106 -113 0 -3 7 -14 17 -24 15 -16 18
-17 33 -3 16 14 17 11 16 -50 -1 -36 1 -65 4 -66 3 0 29 -1 58 -2 51 -2 52 -2
53 28 1 17 1 49 -1 73 -2 41 -1 42 29 42 l31 0 0 -70 c0 -38 3 -70 8 -71 13
-1 77 -2 95 0 10 0 17 7 16 14 -1 6 -1 36 0 65 1 49 2 52 17 38 20 -20 19 -20
37 7 15 23 13 26 -93 132 l-108 108 -106 -108z"/>
</g>
</svg>
